# xmcd
#
# Track frame offsets:
#        150
#        22007
#        45615
#        69982
#        91875
#        109997
#        131277
#        152840
#        171292
#        191485
#        209435
#
# Disc length: 3182 seconds
#
# Revision: 0
# Processed by: cddbd v1.5.1PL0 Copyright (c) Steve Scherf et al.
# Submitted via: ExactAudioCopy v0.95a5
#
DISCID=930c6c0b
DTITLE=Alyson Williams - Alyson Williams
DYEAR=1992
DGENRE=R&B
TTITLE0=Can't Have My Man
TTITLE1=Just My Luck
TTITLE2=Here Comes The Rain
TTITLE3=So Special
TTITLE4=Just The Way I Like It
TTITLE5=Heaven
TTITLE6=Everybody Knew But Me
TTITLE7=Your Love Is All I Need
TTITLE8=She's Not Your Fool
TTITLE9=The 2nd X Around
TTITLE10=Forever Yours
EXTD=
EXTT0=
EXTT1=
EXTT2=
EXTT3=
EXTT4=
EXTT5=
EXTT6=
EXTT7=
EXTT8=
EXTT9=
EXTT10=
PLAYORDER=
